<svg width="24" height="24" viewBox="0 0 24 24" fill="none" xmlns="http://www.w3.org/2000/svg">
<path d="M14.6098 6.6922L11.121 10.3289L9.38895 8.53272C8.72754 7.87936 7.7427 8.82566 8.37277 9.51277L10.6142 11.8372C10.7475 11.9755 10.9313 12.0534 11.1232 12.0531C11.3152 12.0528 11.4987 11.9743 11.6317 11.836L15.6285 7.66971C16.2548 6.98359 15.2733 6.03602 14.6098 6.6922Z" fill="#3D779F"/>
<path d="M8.72949 19.4269C8.72949 19.8336 8.82987 21.0809 9.02427 21.4348L9.44257 22.1924C9.80653 22.8511 10.531 23.294 11.2458 23.294H12.7526C13.4672 23.294 14.1919 22.851 14.5574 22.189L14.9723 21.4347C15.1934 20.9413 15.2835 19.648 15.2688 19.1056H8.72949V19.4269ZM13.754 20.5176C13.7349 20.6442 13.7147 20.7535 13.6954 20.8268L13.3213 21.5067C13.1914 21.7419 12.9299 21.8824 12.7523 21.8824H11.2457C11.0718 21.8824 10.8054 21.7399 10.6784 21.5101L10.2954 20.8165C10.2764 20.7476 10.2565 20.642 10.2377 20.5176H13.754Z" fill="#273C8C"/>
<path d="M11.9999 0.705894C5.64119 0.678365 2.23898 8.32222 6.39253 13.0377C7.13498 13.9864 7.79568 14.9661 8.36039 15.96L8.55098 16.4654C8.76189 16.9526 8.72886 17.6157 8.72745 18.1412H15.271C15.2694 17.6143 15.2374 16.9533 15.446 16.4654L15.6394 15.96C16.2042 14.9661 16.8649 13.9864 17.6074 13.0377C21.7621 8.32194 18.3558 0.676671 11.9999 0.705894ZM16.5409 12.1128C15.7349 13.129 15.019 14.1971 14.4121 15.2626C14.2031 15.7098 14.0021 16.2429 13.9188 16.7294H10.0796C9.99507 16.2443 9.79502 15.709 9.58778 15.2626C8.9923 14.2146 8.29121 13.1732 7.50401 12.1676C4.06651 8.31884 6.83554 2.10538 12.0001 2.11766C17.1109 2.08251 19.9226 8.28086 16.5409 12.1128Z" fill="#273C8C"/>
</svg>
