<svg width="24" height="24" viewBox="0 0 24 24" fill="none" xmlns="http://www.w3.org/2000/svg">
<path d="M12 15C11.55 15 11.25 14.7 11.25 14.25C11.325 13.275 11.85 12.45 12.6 11.85C13.05 11.4 13.5 10.95 13.5 10.5C13.5 9.675 12.825 9 12 9C11.175 9 10.5 9.675 10.5 10.5C10.5 10.95 10.2 11.25 9.75 11.25C9.3 11.25 9 10.95 9 10.5C9 8.85 10.35 7.5 12 7.5C13.65 7.5 15 8.85 15 10.5C14.925 11.475 14.4 12.3 13.65 12.9C13.2 13.35 12.75 13.8 12.75 14.25C12.75 14.7 12.45 15 12 15Z" fill="#3D779F"/>
<path d="M12 17.25C12.4142 17.25 12.75 16.9142 12.75 16.5C12.75 16.0858 12.4142 15.75 12 15.75C11.5858 15.75 11.25 16.0858 11.25 16.5C11.25 16.9142 11.5858 17.25 12 17.25Z" fill="#3D779F"/>
<path d="M3.29989 21.6C3.07489 21.45 2.99989 21.15 2.99989 20.85L3.67489 17.025C0.899889 12.45 2.39989 6.45 6.97489 3.75C11.5499 1.05 17.5499 2.475 20.3249 7.05C23.0999 11.625 21.5999 17.625 17.0249 20.4C14.0249 22.2 10.1999 22.275 7.19989 20.475L4.12489 21.75C3.74989 21.825 3.52489 21.75 3.29989 21.6ZM7.19989 18.9C7.34989 18.9 7.49989 18.975 7.57489 19.05C11.4749 21.525 16.5749 20.325 18.9749 16.5C21.3749 12.675 20.2499 7.5 16.4249 5.1C12.5999 2.7 7.49989 3.675 5.02489 7.575C3.29989 10.275 3.29989 13.8 5.02489 16.5C5.09989 16.65 5.17489 16.875 5.09989 17.025L4.64989 19.8L6.82489 18.9H7.19989Z" fill="#3D779F"/>
</svg>
