<svg width="25" height="25" viewBox="0 0 25 25" fill="none" xmlns="http://www.w3.org/2000/svg">
<g clip-path="url(#clip0_135_2100)">
<path d="M23.6432 0.5C23.51 0.49995 23.3787 0.530887 23.2596 0.5904L16.7643 3.83894L9.41955 0.574128C9.40755 0.569006 9.39384 0.568102 9.38098 0.562979C9.34793 0.550624 9.31413 0.540329 9.27983 0.532142C9.24573 0.522952 9.21108 0.51577 9.17612 0.510697C9.10651 0.504972 9.03655 0.504972 8.967 0.510697C8.93204 0.51577 8.89739 0.522952 8.86329 0.532142C8.82898 0.540329 8.79518 0.550624 8.76214 0.562979C8.74928 0.568102 8.73557 0.568955 8.72357 0.574128L1.0094 4.00266C0.699728 4.14017 0.500194 4.44723 0.500244 4.78603V23.6429C0.500395 23.9329 0.647095 24.2031 0.890221 24.3612C1.1334 24.5195 1.44011 24.544 1.70533 24.4263L9.07151 21.1521L16.4377 24.4263C16.4505 24.4314 16.4643 24.4263 16.4771 24.4341C16.6846 24.5269 16.9228 24.5215 17.1259 24.4195C17.1396 24.4135 17.1551 24.4195 17.1688 24.4101L24.0258 20.9815C24.3164 20.8363 24.4999 20.5393 24.4998 20.2144V1.35755C24.5001 0.884152 24.1165 0.500201 23.6432 0.5ZM8.21441 19.6573L2.21449 22.3238V5.3432L8.21441 2.67664V19.6573ZM15.9286 22.3238L9.92865 19.6573V2.67664L15.9286 5.34315V22.3238ZM22.7856 19.6847L17.6428 22.2561V5.31573L22.7856 2.74434V19.6847Z" fill="#3D779F"/>
</g>
<defs>
<clipPath id="clip0_135_2100">
<rect width="24" height="24" fill="white" transform="translate(0.5 0.5)"/>
</clipPath>
</defs>
</svg>
