<svg width="24" height="24" viewBox="0 0 24 24" fill="none" xmlns="http://www.w3.org/2000/svg">
<path fill-rule="evenodd" clip-rule="evenodd" d="M3.74463 9.42198C3.74463 14.0496 7.49605 17.801 12.1236 17.801C16.7512 17.801 20.5027 14.0496 20.5027 9.42198C20.5027 4.79904 16.7559 0.999995 12.1236 0.999995C7.49142 0.999995 3.74463 4.79904 3.74463 9.42198ZM12.1236 16.5119C8.20799 16.5119 5.03371 13.3376 5.03371 9.42198C5.03371 5.50167 8.21263 2.28907 12.1236 2.28907C16.0347 2.28907 19.2136 5.50167 19.2136 9.42198C19.2136 13.3376 16.0393 16.5119 12.1236 16.5119Z" fill="#3D779F"/>
<path fill-rule="evenodd" clip-rule="evenodd" d="M15.8933 23C16.1497 22.9989 16.381 22.846 16.4825 22.6106L17.6361 19.9347L20.3953 20.8716C20.6375 20.9538 20.9053 20.8851 21.078 20.6965C21.2506 20.5079 21.2955 20.2351 21.1923 20.0011L18.6155 14.1605C18.4719 13.8348 18.0914 13.6873 17.7657 13.831C17.44 13.9746 17.2925 14.3551 17.4361 14.6808L19.4208 19.1793L17.487 18.5227C17.1688 18.4147 16.821 18.5693 16.6879 18.8779L15.884 20.7427L14.1312 16.7668C13.9876 16.4411 13.6071 16.2934 13.2814 16.437C12.9557 16.5806 12.8081 16.9611 12.9517 17.2868L15.3009 22.6155C15.4043 22.8501 15.6369 23.001 15.8933 23Z" fill="#3D779F"/>
<path fill-rule="evenodd" clip-rule="evenodd" d="M8.35384 23C8.61021 23.001 8.84283 22.8501 8.94625 22.6155L11.2955 17.2868C11.4391 16.9611 11.2914 16.5806 10.9657 16.437C10.64 16.2934 10.2595 16.4411 10.1159 16.7668L8.3631 20.7427L7.55921 18.8779C7.42617 18.5693 7.07832 18.4147 6.76009 18.5227L4.82637 19.1793L6.81099 14.6808C6.95468 14.3551 6.80714 13.9746 6.48145 13.831C6.15577 13.6873 5.77528 13.8348 5.63159 14.1605L3.05485 20.0011C2.95164 20.2351 2.99649 20.5079 3.16915 20.6965C3.34182 20.8851 3.60966 20.9538 3.85179 20.8716L6.61104 19.9347L7.7646 22.6106C7.86609 22.846 8.09746 22.9989 8.35384 23Z" fill="#3D779F"/>
<path fill-rule="evenodd" clip-rule="evenodd" d="M9.47181 13.0721C9.6703 13.2163 9.93344 13.2353 10.1506 13.1211L12.1238 12.0838L14.0969 13.1211C14.3141 13.2353 14.5772 13.2163 14.7757 13.0721C14.9742 12.9279 15.0736 12.6835 15.0321 12.4417L14.6553 10.2445L16.2516 8.68844C16.4273 8.51719 16.4906 8.26105 16.4147 8.02773C16.3389 7.7944 16.1372 7.62434 15.8944 7.58906L13.6883 7.26851L12.7018 5.26948C12.5932 5.04947 12.3691 4.91019 12.1238 4.91019C11.8784 4.91019 11.6544 5.04947 11.5458 5.26948L10.5592 7.26851L8.35315 7.58906C8.11036 7.62434 7.90865 7.7944 7.83284 8.02773C7.75702 8.26106 7.82025 8.5172 7.99593 8.68845L9.59228 10.2445L9.2154 12.4417C9.17393 12.6835 9.27333 12.9279 9.47181 13.0721ZM10.7067 11.3724L10.9201 10.1285C10.956 9.91938 10.8866 9.70603 10.7347 9.55795L9.83092 8.67695L11.0799 8.49547C11.2899 8.46496 11.4713 8.33311 11.5652 8.14288L12.1238 7.01111L12.6823 8.14288C12.7762 8.33311 12.9577 8.46496 13.1676 8.49547L14.4167 8.67696L13.5129 9.55796C13.361 9.70603 13.2917 9.91936 13.3275 10.1284L13.5409 11.3724L12.4237 10.7851C12.236 10.6864 12.0116 10.6864 11.8239 10.7851L10.7067 11.3724Z" fill="#3D779F"/>
</svg>
