<svg width="24" height="24" viewBox="0 0 24 24" fill="none" xmlns="http://www.w3.org/2000/svg">
<path fill-rule="evenodd" clip-rule="evenodd" d="M5.691 7.50001H3.75C3.153 7.50001 2.58075 7.73701 2.15925 8.15926C1.737 8.58076 1.5 9.15301 1.5 9.75001V14.25C1.5 14.847 1.737 15.4193 2.15925 15.8408C2.58075 16.263 3.153 16.5 3.75 16.5H5.691C5.91225 16.8 6.20925 17.046 6.5625 17.208L12.5625 19.9575C13.2593 20.277 14.07 20.22 14.715 19.806C15.36 19.392 15.75 18.6788 15.75 17.9123C15.75 14.7728 15.75 9.22726 15.75 6.08776C15.75 5.32126 15.36 4.60801 14.715 4.19401C14.07 3.78001 13.2593 3.72301 12.5625 4.04251L6.5625 6.79201C6.20925 6.95401 5.91225 7.20001 5.691 7.50001ZM13.1873 5.406C13.4198 5.2995 13.6898 5.31826 13.905 5.45626C14.1203 5.59426 14.25 5.83201 14.25 6.08776V17.9123C14.25 18.168 14.1203 18.4058 13.905 18.5438C13.6898 18.6818 13.4198 18.7005 13.1873 18.594L7.18725 15.8445C6.921 15.7223 6.75 15.456 6.75 15.1628V8.83726C6.75 8.54401 6.921 8.27775 7.18725 8.1555L13.1873 5.406ZM5.25 9.00001H3.75C3.55125 9.00001 3.36 9.07876 3.21975 9.21976C3.07875 9.36001 3 9.55126 3 9.75001V14.25C3 14.4488 3.07875 14.64 3.21975 14.7803C3.36 14.9213 3.55125 15 3.75 15H5.25V9.00001Z" fill="#3D779F"/>
<path fill-rule="evenodd" clip-rule="evenodd" d="M18.4591 8.26876C19.9291 8.88826 20.9626 10.3433 20.9626 12.0375C20.9626 13.7318 19.9291 15.1868 18.4591 15.8063C18.0773 15.9675 17.8981 16.4078 18.0586 16.7888C18.2198 17.1705 18.6601 17.3498 19.0411 17.1885C21.0503 16.3425 22.4626 14.3535 22.4626 12.0375C22.4626 9.72152 21.0503 7.73252 19.0411 6.88652C18.6601 6.72527 18.2198 6.90451 18.0586 7.28626C17.8981 7.66726 18.0773 8.10751 18.4591 8.26876Z" fill="#3D779F"/>
<path fill-rule="evenodd" clip-rule="evenodd" d="M16.9523 10.117C17.6918 10.4285 18.2116 11.1601 18.2116 12.0127C18.2116 12.8653 17.6918 13.597 16.9523 13.9085C16.5708 14.0694 16.3915 14.5092 16.5525 14.8907C16.713 15.2722 17.1532 15.4514 17.5343 15.2905C18.8132 14.7519 19.7115 13.4865 19.7115 12.0127C19.7115 10.539 18.8132 9.27355 17.5343 8.73502C17.1532 8.57407 16.713 8.75329 16.5525 9.13479C16.3915 9.51628 16.5708 9.95607 16.9523 10.117Z" fill="#3D779F"/>
</svg>
