<svg width="24" height="24" viewBox="0 0 24 24" fill="none" xmlns="http://www.w3.org/2000/svg">
<g clip-path="url(#clip0_188_157)">
<path d="M15.1096 11.286L14.1676 10.722C13.8031 10.5037 13.4956 10.1962 13.2781 9.83249L12.7148 8.89199C12.4171 8.39024 11.5823 8.39174 11.2861 8.89049L10.7221 9.83249C10.5046 10.1962 10.1971 10.5045 9.8326 10.722L8.8921 11.2852C8.6416 11.4345 8.4856 11.7082 8.4856 12C8.4856 12.2917 8.6416 12.5655 8.8906 12.714L9.8326 13.278C10.1963 13.4955 10.5046 13.803 10.7221 14.1675L11.2853 15.108C11.4346 15.3585 11.7083 15.5145 12.0001 15.5145C12.2918 15.5145 12.5656 15.3585 12.7141 15.1095L13.2781 14.1667C13.4948 13.8037 13.8023 13.4962 14.1676 13.2772L15.1088 12.714C15.3593 12.5647 15.5146 12.291 15.5146 11.9992C15.5146 11.7075 15.3593 11.4352 15.1096 11.286ZM13.4746 12.1192C12.9196 12.4515 12.4508 12.9202 12.1193 13.4737L12.0001 13.6732L11.8808 13.473C11.5493 12.9187 11.0806 12.4507 10.5263 12.1185L10.3268 12L10.5271 11.8807C11.0813 11.5492 11.5493 11.0805 11.8816 10.5262L12.0001 10.3267L12.1193 10.5262C12.4501 11.0797 12.9188 11.5485 13.4746 11.8807L13.6733 12L13.4746 12.1192ZM14.4166 11.556H14.4151C14.4158 11.556 14.4166 11.5552 14.4166 11.556C14.4166 11.5552 14.4166 11.5552 14.4166 11.556Z" fill="#3D779F"/>
<path d="M12.0002 4.70026C7.97494 4.70026 4.70044 7.97476 4.70044 12C4.70044 16.0253 7.97494 19.2998 12.0002 19.2998C16.0254 19.2998 19.2999 16.0253 19.2999 12C19.2999 7.97476 16.0254 4.70026 12.0002 4.70026ZM12.0002 17.9505C8.71894 17.9505 6.04969 15.2813 6.04969 12C6.04969 8.71876 8.71894 6.04951 12.0002 6.04951C15.2807 6.04951 17.9499 8.71876 17.9499 12C17.9499 15.2813 15.2807 17.9505 12.0002 17.9505Z" fill="#3D779F"/>
<path d="M22.8946 11.0205L21.8573 9.3585L21.9256 7.401C21.9496 6.699 21.5641 6.03225 20.9431 5.703L19.2151 4.785L18.2963 3.0555C17.9663 2.4345 17.3146 2.04975 16.5976 2.07375L14.6408 2.14125L12.9781 1.10475C12.3826 0.734249 11.6146 0.734249 11.0198 1.10475L9.35709 2.14125L7.40034 2.07375C6.69984 2.05275 6.03234 2.436 5.70309 3.05625L4.78584 4.785L3.05634 5.703C2.43609 6.03225 2.05059 6.699 2.07459 7.40175L2.14209 9.3585L1.10559 11.0212C0.734336 11.616 0.734336 12.384 1.10559 12.9787L2.14209 14.6415L2.07459 16.5982C2.04984 17.301 2.43534 17.9677 3.05634 18.297L4.78509 19.215L5.70309 20.9445C6.03234 21.5647 6.68709 21.9577 7.40184 21.9262L9.35859 21.8587L11.0213 22.8952C11.3183 23.0805 11.6596 23.1735 12.0001 23.1735C12.3406 23.1735 12.6818 23.0805 12.9796 22.8952L14.6423 21.8587L16.5983 21.9262C17.3273 21.9592 17.9678 21.5655 18.2971 20.9445L19.2151 19.2157L20.9446 18.2977C21.5656 17.9685 21.9511 17.301 21.9263 16.599L21.8588 14.6422L22.8961 12.9795C23.2658 12.384 23.2658 11.616 22.8946 11.0205ZM21.7493 12.2647L20.6198 14.076C20.5388 14.2102 20.4983 14.3632 20.5028 14.5252L20.5763 16.647C20.5831 16.836 20.4788 17.0167 20.3108 17.1052L18.4358 18.1005C18.2963 18.174 18.1823 18.2872 18.0998 18.4365L17.1046 20.3115C17.0138 20.4817 16.8353 20.5725 16.6456 20.577L14.5291 20.5035C14.3648 20.4937 14.2051 20.5395 14.0678 20.6257L12.2656 21.75C12.1043 21.8505 11.8973 21.8505 11.7361 21.75L9.93234 20.625C9.80334 20.5447 9.65634 20.5027 9.50859 20.5027C9.49809 20.5027 9.48759 20.5027 9.47709 20.5035L7.35609 20.577C7.16709 20.5665 6.98484 20.4795 6.89634 20.3115L5.90109 18.4365C5.82534 18.294 5.71059 18.1785 5.56509 18.0997L3.69009 17.1037C3.52209 17.0152 3.41859 16.8352 3.42459 16.6455L3.49809 14.5282C3.50484 14.3662 3.46284 14.2072 3.37584 14.067L2.25159 12.2647C2.15109 12.1042 2.15109 11.8957 2.25159 11.7352L3.37659 9.9315C3.46209 9.79275 3.50409 9.6345 3.49809 9.47625L3.42384 7.35525C3.41709 7.1655 3.52134 6.98475 3.68934 6.8955L5.56434 5.90025C5.70684 5.8245 5.82234 5.70975 5.90109 5.56425L6.89709 3.68925C6.98634 3.52125 7.18359 3.4275 7.35534 3.42375L9.47259 3.49725C9.63384 3.5025 9.79359 3.462 9.93384 3.375L11.7361 2.25075C11.8973 2.15025 12.1043 2.15025 12.2656 2.25075L14.0656 3.3735C14.2058 3.46125 14.3633 3.501 14.5253 3.49725L16.6463 3.42375C16.8136 3.4245 17.0161 3.52125 17.1053 3.68925L18.0968 5.55675C18.1726 5.70375 18.2903 5.823 18.4366 5.90025L20.3108 6.8955C20.4788 6.98475 20.5831 7.16475 20.5763 7.3545L20.5021 9.48075C20.4976 9.63675 20.5381 9.7905 20.6243 9.93375L21.7486 11.7352C21.8498 11.8957 21.8498 12.1035 21.7493 12.2647Z" fill="#3D779F"/>
</g>
<defs>
<clipPath id="clip0_188_157">
<rect width="24" height="24" fill="white"/>
</clipPath>
</defs>
</svg>
